<?xml version="1.0" standalone="no"?>
<!DOCTYPE svg PUBLIC "-//W3C//DTD SVG 20010904//EN"
 "http://www.w3.org/TR/2001/REC-SVG-20010904/DTD/svg10.dtd">
<svg version="1.0" xmlns="http://www.w3.org/2000/svg"
 width="2000.000000pt" height="2000.000000pt" viewBox="0 0 2000.000000 2000.000000"
 preserveAspectRatio="xMidYMid meet">

<g transform="translate(0.000000,2000.000000) scale(0.100000,-0.100000)"
fill="#000000" stroke="none">
<path d="M9729 12969 c-365 -55 -744 -160 -975 -269 -346 -163 -484 -354 -416
-576 53 -172 220 -343 543 -554 113 -74 125 -79 136 -63 7 9 13 22 13 27 0 6
-42 37 -94 68 -287 175 -488 372 -543 529 -113 329 361 612 1297 774 85 15
156 28 158 30 2 2 2 14 0 27 l-3 24 -116 -17z"/>
<path d="M10866 12859 c-15 -21 -13 -24 55 -70 227 -157 391 -334 458 -494 21
-49 26 -77 26 -150 0 -79 -4 -97 -28 -148 -129 -262 -592 -469 -1370 -613
-211 -39 -223 -44 -199 -81 16 -26 614 102 877 187 711 232 942 559 675 959
-86 128 -300 327 -443 411 l-35 21 -16 -22z"/>
<path d="M9667 12629 c-287 -24 -525 -104 -653 -222 -61 -55 -120 -164 -130
-237 -22 -167 121 -285 450 -370 474 -123 935 -119 1343 11 90 29 303 116 303
125 0 2 -5 14 -11 27 l-11 25 -75 -35 c-309 -143 -693 -212 -1023 -183 -460
39 -818 153 -895 285 -72 122 24 299 213 394 204 103 561 154 841 122 246 -29
451 -138 451 -240 0 -61 -152 -158 -316 -202 -105 -29 -329 -30 -481 -2 l-103
19 0 -27 c0 -24 5 -28 48 -37 184 -40 437 -41 571 -2 173 49 308 139 333 221
26 87 -41 170 -197 244 -107 51 -193 72 -352 85 -132 11 -165 11 -306 -1z"/>
<path d="M9695 12464 c-38 -7 -104 -26 -147 -40 -73 -26 -76 -28 -66 -50 13
-29 11 -29 80 -5 95 33 201 52 294 54 88 2 89 2 89 27 0 25 -1 25 -90 27 -49
1 -121 -5 -160 -13z"/>
<path d="M10045 12263 c-26 -11 -74 -16 -137 -17 -88 -1 -97 -3 -102 -21 -3
-11 -6 -23 -6 -26 0 -12 104 -17 170 -8 36 4 88 15 117 24 50 15 52 16 41 40
-13 29 -27 30 -83 8z"/>
<path d="M6647 9553 c-37 -65 -81 -141 -98 -170 l-30 -52 68 -34 c71 -36 268
-107 296 -107 10 0 17 -5 17 -10 0 -6 -34 -73 -75 -149 -77 -144 -87 -179 -59
-219 39 -56 -196 -52 3191 -52 3070 0 3118 0 3150 20 41 24 57 55 50 94 -3 17
-37 90 -76 161 -74 136 -81 155 -56 155 28 0 229 72 296 106 l68 34 -96 167
c-53 93 -98 169 -99 171 -1 2 -21 -6 -44 -18 -76 -39 -223 -91 -355 -125 -238
-63 -473 -95 -1060 -145 -732 -63 -1125 -143 -1443 -296 -177 -84 -352 -211
-352 -254 0 -11 -4 -22 -10 -25 -6 -4 -10 13 -10 42 0 47 -2 51 -47 84 -139
104 -295 183 -478 242 -340 110 -584 150 -1335 217 -750 67 -970 113 -1335
276 -6 2 -41 -49 -78 -113z m6597 -82 c37 -63 63 -118 59 -122 -15 -15 -150
-67 -239 -92 -326 -94 -630 -118 -1449 -115 -532 1 -685 -5 -915 -38 -132 -19
-276 -49 -357 -73 -35 -11 -63 -17 -63 -14 0 8 122 60 230 98 280 97 618 157
1150 205 651 57 828 79 1040 126 150 34 319 85 400 122 36 16 68 27 72 23 3
-3 36 -57 72 -120z m-6432 95 c91 -40 275 -95 425 -126 218 -45 374 -64 1008
-120 528 -47 878 -109 1155 -206 105 -36 230 -89 230 -97 0 -2 -30 4 -67 15
-325 91 -713 122 -1398 111 -659 -10 -1074 30 -1382 133 -105 35 -183 69 -183
80 0 16 135 234 145 234 7 0 37 -11 67 -24z m283 -421 c245 -42 351 -47 1115
-55 445 -5 785 -12 845 -19 262 -31 489 -82 650 -146 101 -41 195 -92 195
-106 0 -5 -595 -9 -1524 -9 l-1523 0 -27 21 c-14 11 -26 24 -26 29 0 4 37 76
81 160 72 133 84 151 103 146 12 -3 62 -12 111 -21z m5934 -131 l84 -156 -22
-21 -22 -22 -1535 -3 c-1006 -1 -1533 1 -1529 8 10 16 131 80 211 111 90 35
266 82 384 104 238 43 314 47 1090 55 787 8 895 14 1135 59 55 10 105 19 111
20 5 0 48 -69 93 -155z"/>
<path d="M4685 7579 c-148 -51 -243 -164 -253 -300 -10 -137 66 -211 352 -340
150 -67 211 -119 231 -196 16 -61 8 -98 -30 -149 -73 -95 -214 -106 -371 -29
-86 42 -139 97 -155 160 -6 25 -15 45 -20 45 -5 0 -9 -63 -9 -140 0 -141 7
-165 32 -112 19 38 54 39 127 2 94 -47 171 -63 276 -58 148 8 249 69 306 183
26 54 31 75 31 138 0 169 -96 270 -389 408 -145 69 -185 95 -202 137 -26 62
22 152 103 195 55 29 174 31 226 3 65 -34 105 -86 66 -86 -8 0 -27 -11 -43
-24 -22 -19 -28 -33 -28 -64 0 -73 68 -112 134 -77 40 20 54 57 46 115 -13 89
-75 163 -164 195 -63 22 -192 19 -266 -6z"/>
<path d="M13364 7586 c-34 -8 -84 -26 -113 -40 -298 -152 -363 -657 -118 -922
117 -127 279 -171 472 -128 131 28 134 28 165 5 16 -11 32 -21 35 -21 3 0 5
140 5 310 l0 310 -155 0 c-85 0 -155 -4 -155 -8 0 -5 11 -14 25 -20 52 -24 60
-58 63 -294 4 -253 8 -243 -104 -236 -78 5 -131 38 -185 115 -143 205 -122
633 38 798 82 85 219 109 297 52 18 -13 18 -15 -4 -53 -27 -46 -23 -81 12
-114 52 -48 148 -9 148 60 0 130 -230 230 -426 186z"/>
<path d="M15065 7582 c-157 -54 -253 -165 -263 -303 -10 -136 67 -211 353
-339 190 -86 264 -174 235 -280 -29 -107 -142 -165 -275 -141 -138 25 -263
116 -287 208 -6 24 -14 43 -19 43 -5 0 -9 -63 -9 -140 0 -113 3 -140 14 -140
8 0 17 11 20 25 11 42 47 42 134 2 101 -46 171 -61 273 -55 107 5 180 37 248
107 61 63 86 129 85 226 -2 157 -104 260 -390 396 -193 90 -226 126 -203 213
29 107 182 174 302 132 44 -16 105 -56 111 -73 3 -6 -12 -20 -32 -30 -49 -24
-67 -62 -52 -108 23 -69 115 -84 161 -27 17 22 20 36 16 78 -10 99 -72 177
-166 209 -61 20 -192 19 -256 -3z"/>
<path d="M10068 7583 c-61 -4 -73 -16 -34 -34 54 -25 56 -42 56 -509 0 -467
-3 -494 -56 -518 -13 -7 -24 -18 -24 -27 0 -13 27 -15 195 -15 168 0 195 2
195 15 0 9 -11 20 -24 26 -44 20 -57 70 -54 209 l3 125 68 -133 c72 -141 117
-200 171 -226 114 -54 246 33 246 162 l0 51 -35 -15 c-52 -21 -118 -18 -173
10 -62 33 -198 145 -180 150 7 2 44 12 81 21 85 22 171 78 216 140 108 150 70
388 -78 486 -106 70 -306 98 -573 82z m372 -91 c35 -22 53 -43 80 -96 33 -65
35 -74 34 -165 0 -109 -22 -180 -75 -244 -35 -42 -95 -77 -134 -77 l-25 0 0
311 0 311 38 -6 c20 -4 57 -19 82 -34z"/>
<path d="M11428 7583 c-32 -2 -58 -7 -58 -11 1 -4 15 -16 33 -27 57 -36 58
-53 55 -530 -3 -395 -4 -433 -21 -458 -10 -16 -29 -33 -43 -39 -13 -6 -24 -17
-24 -25 0 -10 40 -13 200 -13 160 0 200 3 200 13 0 8 -11 19 -25 25 -46 21
-59 65 -59 202 l-1 125 65 6 c178 18 307 94 367 218 24 48 28 68 28 141 -1
109 -23 174 -81 239 -52 58 -125 96 -222 116 -70 15 -316 26 -414 18z m358
-79 c19 -9 50 -35 69 -57 116 -135 81 -417 -63 -508 -27 -17 -60 -29 -79 -29
l-33 0 0 303 c0 167 3 307 7 311 10 10 56 0 99 -20z"/>
<path d="M5312 7494 c-7 -47 -15 -99 -19 -115 -4 -22 -2 -29 11 -29 10 0 16 8
16 22 0 12 11 41 25 65 35 59 88 85 188 91 l77 5 -1 -459 c0 -328 -4 -469 -12
-494 -7 -20 -25 -43 -44 -55 -65 -40 -47 -45 167 -45 173 0 200 2 200 15 0 9
-11 20 -25 25 -53 20 -55 39 -55 545 l0 465 58 0 c74 0 124 -14 162 -47 32
-26 70 -91 70 -118 0 -8 7 -15 16 -15 10 0 14 6 10 18 -3 9 -10 53 -16 97 -6
44 -13 88 -16 98 -5 16 -33 17 -403 17 l-397 0 -12 -86z"/>
<path d="M6220 7573 c0 -5 14 -16 30 -25 59 -33 60 -45 59 -510 0 -463 -2
-479 -56 -513 -70 -43 -58 -45 356 -45 l389 0 6 28 c3 15 10 59 16 97 6 39 13
80 16 93 3 15 0 22 -11 22 -8 0 -15 -7 -15 -15 0 -27 -38 -92 -70 -118 -46
-39 -90 -47 -252 -47 l-148 0 0 225 0 225 113 0 c127 0 155 -9 177 -57 30 -64
40 -41 40 87 0 95 -3 120 -14 120 -7 0 -19 -14 -26 -30 -22 -53 -42 -60 -172
-60 l-118 0 0 241 0 241 148 -4 c113 -2 154 -7 178 -20 31 -17 54 -54 54 -88
0 -11 7 -20 15 -20 12 0 15 17 15 90 l0 90 -365 0 c-201 0 -365 -3 -365 -7z"/>
<path d="M7110 7572 c0 -5 11 -14 25 -20 13 -6 32 -26 42 -44 17 -30 18 -68
18 -473 0 -405 -1 -443 -18 -473 -10 -18 -29 -38 -42 -44 -14 -6 -25 -17 -25
-25 0 -11 67 -13 387 -11 l387 3 18 100 c21 126 21 135 3 135 -8 0 -15 -9 -15
-20 0 -32 -37 -96 -67 -118 -47 -33 -101 -42 -255 -42 l-148 0 1 458 c0 327 4
467 12 492 7 20 25 43 44 55 18 11 32 23 33 28 0 4 -90 7 -200 7 -110 0 -200
-4 -200 -8z"/>
<path d="M8000 7572 c0 -5 11 -14 24 -20 14 -6 33 -23 43 -39 17 -25 18 -63
21 -458 3 -477 2 -494 -55 -530 -70 -43 -58 -45 356 -45 l388 0 17 104 c9 58
16 112 16 120 0 31 -19 15 -30 -24 -15 -54 -74 -115 -127 -129 -25 -7 -102
-10 -190 -9 l-148 3 0 465 c0 429 1 468 18 498 10 18 29 38 42 44 14 6 25 15
25 20 0 4 -90 8 -200 8 -110 0 -200 -4 -200 -8z"/>
<path d="M9250 7572 c0 -5 9 -17 20 -27 11 -10 20 -27 20 -38 0 -34 -281 -899
-304 -934 -11 -18 -38 -41 -58 -50 -70 -31 -49 -43 77 -43 124 0 142 9 85 42
-34 19 -39 51 -18 119 l11 39 239 0 238 0 11 -27 c5 -15 12 -45 16 -68 5 -37
2 -44 -21 -62 -50 -39 -36 -43 159 -43 156 0 185 2 185 15 0 8 -13 21 -29 30
-17 8 -37 28 -47 43 -9 16 -87 249 -174 518 l-157 489 -127 3 c-69 1 -126 -1
-126 -6z m190 -522 l96 -305 -214 -3 c-118 -1 -216 -1 -218 1 -4 4 204 656
214 672 3 5 11 -6 16 -25 6 -19 53 -172 106 -340z"/>
<path d="M12350 7565 c0 -8 4 -15 10 -15 5 0 14 -9 20 -20 9 -16 -16 -103
-131 -463 -77 -243 -151 -460 -162 -482 -15 -27 -36 -46 -64 -60 -73 -35 -56
-45 72 -45 96 0 115 2 115 15 0 9 -11 21 -25 27 -33 15 -41 50 -23 107 l14 46
240 3 241 2 11 -38 c18 -59 15 -100 -8 -119 -45 -39 -29 -43 165 -43 198 0
220 6 151 44 -18 10 -42 34 -53 54 -11 21 -89 254 -174 519 l-154 483 -122 0
c-103 0 -123 -2 -123 -15z m95 -232 c15 -49 60 -194 101 -323 41 -129 77 -243
80 -252 5 -17 -9 -18 -210 -18 -162 0 -216 3 -216 12 0 21 208 668 215 668 2
0 16 -39 30 -87z"/>
<path d="M13900 7572 c0 -5 11 -14 26 -20 52 -24 54 -44 54 -517 0 -473 -2
-493 -54 -517 -15 -6 -26 -17 -26 -25 0 -11 70 -13 388 -13 l387 0 18 116 c10
64 16 118 13 121 -9 10 -23 -7 -29 -34 -9 -44 -48 -94 -92 -117 -35 -18 -61
-21 -207 -24 l-168 -4 0 226 0 226 115 0 c134 0 172 -13 182 -60 3 -17 12 -30
19 -30 11 0 14 25 14 120 0 100 -2 120 -15 120 -8 0 -15 -7 -15 -16 0 -8 -13
-29 -29 -45 -29 -29 -30 -29 -150 -29 l-121 0 0 240 0 240 128 0 c185 0 232
-17 252 -92 18 -64 30 -43 30 52 l0 90 -360 0 c-198 0 -360 -4 -360 -8z"/>
<path d="M7980 5771 c-129 -27 -197 -138 -188 -302 8 -140 69 -224 184 -250
119 -27 235 20 284 116 22 44 25 61 25 160 0 88 -4 118 -19 148 -24 48 -71 96
-111 112 -40 17 -131 25 -175 16z m165 -69 c18 -10 41 -39 58 -71 22 -46 27
-67 27 -132 0 -80 -18 -149 -48 -182 -27 -31 -92 -57 -143 -57 -108 0 -177 77
-187 208 -9 127 43 230 126 248 15 3 32 7 37 9 20 8 101 -7 130 -23z"/>
<path d="M8668 5766 c-90 -24 -138 -75 -164 -177 -19 -75 -15 -172 11 -237 49
-122 224 -179 351 -114 89 46 129 125 128 257 0 79 -3 98 -28 149 -34 68 -85
110 -157 125 -62 13 -81 13 -141 -3z m172 -61 c62 -32 93 -100 94 -205 1 -134
-53 -221 -148 -235 -146 -22 -231 64 -231 235 1 119 50 199 136 220 41 10 114
3 149 -15z"/>
<path d="M10171 5768 c-95 -27 -134 -103 -97 -191 19 -46 42 -63 137 -102 89
-37 129 -71 129 -110 0 -33 -18 -69 -41 -84 -43 -26 -157 -24 -232 4 -13 6
-17 2 -17 -19 0 -39 32 -50 140 -51 77 0 101 4 129 20 55 32 76 69 76 130 0
47 -4 58 -33 88 -19 20 -65 46 -114 67 -100 40 -128 66 -128 115 0 74 75 107
185 81 45 -11 62 -12 67 -3 17 27 2 42 -52 54 -67 14 -105 14 -149 1z"/>
<path d="M11300 5771 c-129 -28 -197 -138 -188 -302 10 -177 117 -273 284
-256 97 10 167 65 199 158 20 55 19 193 -1 251 -18 53 -73 114 -120 134 -41
17 -129 25 -174 15z m165 -69 c18 -10 41 -39 58 -71 22 -46 27 -67 27 -132 0
-84 -19 -151 -52 -186 -53 -56 -171 -68 -243 -23 -102 63 -114 306 -20 389 20
17 48 33 63 37 15 3 32 7 37 9 20 8 101 -7 130 -23z"/>
<path d="M7220 5495 l0 -277 138 4 c121 3 141 6 173 26 63 39 88 127 54 192
-15 30 -61 60 -90 60 -8 0 -15 5 -15 10 0 6 7 10 16 10 9 0 31 15 50 34 28 28
34 42 34 75 0 104 -47 132 -232 139 l-128 4 0 -277z m245 211 c37 -16 55 -42
55 -81 0 -66 -50 -95 -165 -95 l-75 0 0 95 0 95 75 0 c43 0 90 -6 110 -14z
m19 -240 c61 -26 72 -118 20 -167 -23 -21 -37 -24 -125 -27 l-99 -4 0 106 0
106 85 0 c51 0 99 -6 119 -14z"/>
<path d="M9220 5495 l0 -275 30 0 30 0 0 108 c0 107 0 109 30 137 16 16 31 27
33 24 2 -2 48 -64 101 -136 93 -127 99 -133 133 -133 l35 0 -24 33 c-72 95
-190 260 -194 271 -4 11 43 67 175 209 l35 37 -34 0 c-32 -1 -45 -12 -155
-135 -66 -73 -123 -134 -127 -134 -5 -1 -8 60 -8 134 l0 135 -30 0 -30 0 0
-275z"/>
<path d="M10540 5745 c0 -25 1 -25 90 -25 l90 0 0 -250 0 -250 30 0 30 0 0
250 0 250 85 0 c84 0 85 0 85 25 l0 25 -205 0 -205 0 0 -25z"/>
<path d="M11840 5495 l0 -275 30 0 30 0 0 115 0 115 59 0 59 0 67 -115 c65
-112 68 -115 101 -115 26 0 33 3 27 13 -4 6 -38 62 -75 122 l-67 110 35 18
c50 26 74 70 74 139 0 49 -4 62 -30 91 -38 44 -89 57 -214 57 l-96 0 0 -275z
m212 215 c21 -6 44 -21 53 -33 17 -25 20 -99 4 -129 -16 -30 -70 -48 -144 -48
l-65 0 0 110 0 110 58 0 c31 0 74 -5 94 -10z"/>
<path d="M12420 5495 l0 -275 150 0 150 0 0 25 0 25 -125 0 -125 0 0 105 0
105 115 0 115 0 0 25 c0 24 0 24 -112 27 l-113 3 0 90 0 90 123 3 122 3 0 24
0 25 -150 0 -150 0 0 -275z"/>
</g>
</svg>
